<svg version="1.1" viewBox="0.0 0.0 749.0 463.0" fill="none" stroke="none" stroke-linecap="square" stroke-miterlimit="10" width="749" height="463" xmlns:xlink="http://www.w3.org/1999/xlink" xmlns="http://www.w3.org/2000/svg"><path fill="#000000" d="M0 0L749.0 0L749.0 463.0L0 463.0L0 0Z" fill-rule="nonzero"/><path stroke="#333333" stroke-width="1.0" stroke-linecap="butt" d="M89.5 69.5L89.5 358.5" fill-rule="nonzero"/><path stroke="#333333" stroke-width="1.0" stroke-linecap="butt" d="M220.5 69.5L220.5 358.5" fill-rule="nonzero"/><path stroke="#333333" stroke-width="1.0" stroke-linecap="butt" d="M351.5 69.5L351.5 358.5" fill-rule="nonzero"/><path stroke="#333333" stroke-width="1.0" stroke-linecap="butt" d="M482.5 69.5L482.5 358.5" fill-rule="nonzero"/><path stroke="#333333" stroke-width="1.0" stroke-linecap="butt" d="M613.5 69.5L613.5 358.5" fill-rule="nonzero"/><path stroke="#333333" stroke-width="1.0" stroke-linecap="butt" d="M82.5 358.5L725.5 358.5" fill-rule="nonzero"/><path stroke="#333333" stroke-width="1.0" stroke-linecap="butt" d="M82.5 286.5L725.5 286.5" fill-rule="nonzero"/><path stroke="#333333" stroke-width="1.0" stroke-linecap="butt" d="M82.5 214.5L725.5 214.5" fill-rule="nonzero"/><path stroke="#333333" stroke-width="1.0" stroke-linecap="butt" d="M82.5 141.5L725.5 141.5" fill-rule="nonzero"/><path stroke="#333333" stroke-width="1.0" stroke-linecap="butt" d="M82.5 69.5L725.5 69.5" fill-rule="nonzero"/><clipPath id="id_0"><path d="M82.15 69.583336L725.85 69.583336L725.85 358.41666L82.15 358.41666L82.15 69.583336Z" clip-rule="nonzero"/></clipPath><path stroke="#ff6d01" stroke-width="4.0" stroke-linecap="butt" stroke-opacity="0.3019608" clip-path="url(#id_0)" d="M0 448.55347L725.85 260.66168" fill-rule="nonzero"/><path stroke="#34a853" stroke-width="4.0" stroke-linecap="butt" stroke-opacity="0.3019608" clip-path="url(#id_0)" d="M0 319.18393L725.85 363.725" fill-rule="nonzero"/><path stroke="#4285f4" stroke-width="4.0" stroke-linecap="butt" stroke-opacity="0.3019608" clip-path="url(#id_0)" d="M0 255.63898L725.85 414.34863" fill-rule="nonzero"/><path fill="#ff6d01" clip-path="url(#id_0)" d="M93.501 382.4861C93.501 384.9714 91.486275 386.9861 89.001 386.9861C86.51572 386.9861 84.501 384.9714 84.501 382.4861C84.501 380.00082 86.51572 377.9861 89.001 377.9861C91.486275 377.9861 93.501 380.00082 93.501 382.4861Z" fill-rule="nonzero"/><path fill="#ff6d01" clip-path="url(#id_0)" d="M119.750916 382.4861C119.750916 384.9714 117.73619 386.9861 115.250916 386.9861C112.76563 386.9861 110.750916 384.9714 110.750916 382.4861C110.750916 380.00082 112.76563 377.9861 115.250916 377.9861C117.73619 377.9861 119.750916 380.00082 119.750916 382.4861Z" fill-rule="nonzero"/><path fill="#ff6d01" clip-path="url(#id_0)" d="M146.00082 382.4861C146.00082 384.9714 143.98611 386.9861 141.50082 386.9861C139.01555 386.9861 137.00082 384.9714 137.00082 382.4861C137.00082 380.00082 139.01555 377.9861 141.50082 377.9861C143.98611 377.9861 146.00082 380.00082 146.00082 382.4861Z" fill-rule="nonzero"/><path fill="#ff6d01" clip-path="url(#id_0)" d="M172.25075 382.4861C172.25075 384.9714 170.23602 386.9861 167.75075 386.9861C165.26547 386.9861 163.25075 384.9714 163.25075 382.4861C163.25075 380.00082 165.26547 377.9861 167.75075 377.9861C170.23602 377.9861 172.25075 380.00082 172.25075 382.4861Z" fill-rule="nonzero"/><path fill="#ff6d01" clip-path="url(#id_0)" d="M198.50067 382.4861C198.50067 384.9714 196.48595 386.9861 194.00067 386.9861C191.51538 386.9861 189.50067 384.9714 189.50067 382.4861C189.50067 380.00082 191.51538 377.9861 194.00067 377.9861C196.48595 377.9861 198.50067 380.00082 198.50067 382.4861Z" fill-rule="nonzero"/><path fill="#ff6d01" clip-path="url(#id_0)" d="M224.75058 382.4861C224.75058 384.9714 222.73586 386.9861 220.25058 386.9861C217.7653 386.9861 215.75058 384.9714 215.75058 382.4861C215.75058 380.00082 217.7653 377.9861 220.25058 377.9861C222.73586 377.9861 224.75058 380.00082 224.75058 382.4861Z" fill-rule="nonzero"/><path fill="#ff6d01" clip-path="url(#id_0)" d="M251.0005 382.4861C251.0005 384.9714 248.98578 386.9861 246.5005 386.9861C244.01521 386.9861 242.0005 384.9714 242.0005 382.4861C242.0005 380.00082 244.01521 377.9861 246.5005 377.9861C248.98578 377.9861 251.0005 380.00082 251.0005 382.4861Z" fill-rule="nonzero"/><path fill="#ff6d01" clip-path="url(#id_0)" d="M277.25043 382.4861C277.25043 384.9714 275.2357 386.9861 272.75043 386.9861C270.26514 386.9861 268.25043 384.9714 268.25043 382.4861C268.25043 380.00082 270.26514 377.9861 272.75043 377.9861C275.2357 377.9861 277.25043 380.00082 277.25043 382.4861Z" fill-rule="nonzero"/><path fill="#ff6d01" clip-path="url(#id_0)" d="M303.50034 382.4861C303.50034 384.9714 301.48563 386.9861 299.00034 386.9861C296.51505 386.9861 294.50034 384.9714 294.50034 382.4861C294.50034 380.00082 296.51505 377.9861 299.00034 377.9861C301.48563 377.9861 303.50034 380.00082 303.50034 382.4861Z" fill-rule="nonzero"/><path fill="#ff6d01" clip-path="url(#id_0)" d="M329.75024 382.4861C329.75024 384.9714 327.73553 386.9861 325.25024 386.9861C322.76495 386.9861 320.75024 384.9714 320.75024 382.4861C320.75024 380.00082 322.76495 377.9861 325.25024 377.9861C327.73553 377.9861 329.75024 380.00082 329.75024 382.4861Z" fill-rule="nonzero"/><path fill="#ff6d01" clip-path="url(#id_0)" d="M356.00015 382.4861C356.00015 384.9714 353.98544 386.9861 351.50015 386.9861C349.0149 386.9861 347.00015 384.9714 347.00015 382.4861C347.00015 380.00082 349.0149 377.9861 351.50015 377.9861C353.98544 377.9861 356.00015 380.00082 356.00015 382.4861Z" fill-rule="nonzero"/><path fill="#ff6d01" clip-path="url(#id_0)" d="M382.2501 382.4861C382.2501 384.9714 380.23535 386.9861 377.7501 386.9861C375.2648 386.9861 373.2501 384.9714 373.2501 382.4861C373.2501 380.00082 375.2648 377.9861 377.7501 377.9861C380.23535 377.9861 382.2501 380.00082 382.2501 382.4861Z" fill-rule="nonzero"/><path fill="#ff6d01" clip-path="url(#id_0)" d="M408.5 382.4861C408.5 384.9714 406.4853 386.9861 404.0 386.9861C401.5147 386.9861 399.5 384.9714 399.5 382.4861C399.5 380.00082 401.5147 377.9861 404.0 377.9861C406.4853 377.9861 408.5 380.00082 408.5 382.4861Z" fill-rule="nonzero"/><path fill="#ff6d01" clip-path="url(#id_0)" d="M434.7499 382.4861C434.7499 384.9714 432.7352 386.9861 430.2499 386.9861C427.76465 386.9861 425.7499 384.9714 425.7499 382.4861C425.7499 380.00082 427.76465 377.9861 430.2499 377.9861C432.7352 377.9861 434.7499 380.00082 434.7499 382.4861Z" fill-rule="nonzero"/><path fill="#ff6d01" clip-path="url(#id_0)" d="M460.99985 358.41666C460.99985 360.90195 458.9851 362.91666 456.49985 362.91666C454.01456 362.91666 451.99985 360.90195 451.99985 358.41666C451.99985 355.9314 454.01456 353.91666 456.49985 353.91666C458.9851 353.91666 460.99985 355.9314 460.99985 358.41666Z" fill-rule="nonzero"/><path fill="#ff6d01" clip-path="url(#id_0)" d="M487.24976 382.4861C487.24976 384.9714 485.23505 386.9861 482.74976 386.9861C480.26447 386.9861 478.24976 384.9714 478.24976 382.4861C478.24976 380.00082 480.26447 377.9861 482.74976 377.9861C485.23505 377.9861 487.24976 380.00082 487.24976 382.4861Z" fill-rule="nonzero"/><path fill="#ff6d01" clip-path="url(#id_0)" d="M513.4997 382.4861C513.4997 384.9714 511.48495 386.9861 508.99966 386.9861C506.51437 386.9861 504.49966 384.9714 504.49966 382.4861C504.49966 380.00082 506.51437 377.9861 508.99966 377.9861C511.48495 377.9861 513.4997 380.00082 513.4997 382.4861Z" fill-rule="nonzero"/><path fill="#ff6d01" clip-path="url(#id_0)" d="M539.7496 310.27777C539.7496 312.76306 537.73486 314.77777 535.2496 314.77777C532.7643 314.77777 530.7496 312.76306 530.7496 310.27777C530.7496 307.7925 532.7643 305.77777 535.2496 305.77777C537.73486 305.77777 539.7496 307.7925 539.7496 310.27777Z" fill-rule="nonzero"/><path fill="#ff6d01" clip-path="url(#id_0)" d="M565.9995 358.41666C565.9995 360.90195 563.9848 362.91666 561.4995 362.91666C559.0142 362.91666 556.9995 360.90195 556.9995 358.41666C556.9995 355.9314 559.0142 353.91666 561.4995 353.91666C563.9848 353.91666 565.9995 355.9314 565.9995 358.41666Z" fill-rule="nonzero"/><path fill="#ff6d01" clip-path="url(#id_0)" d="M592.2494 262.1389C592.2494 264.62418 590.2347 266.6389 587.7494 266.6389C585.26416 266.6389 583.2494 264.62418 583.2494 262.1389C583.2494 259.6536 585.26416 257.6389 587.7494 257.6389C590.2347 257.6389 592.2494 259.6536 592.2494 262.1389Z" fill-rule="nonzero"/><path fill="#ff6d01" clip-path="url(#id_0)" d="M618.4993 214.0C618.4993 216.48528 616.4846 218.5 613.9993 218.5C611.51404 218.5 609.4993 216.48528 609.4993 214.0C609.4993 211.51472 611.51404 209.5 613.9993 209.5C616.4846 209.5 618.4993 211.51472 618.4993 214.0Z" fill-rule="nonzero"/><path fill="#ff6d01" clip-path="url(#id_0)" d="M644.74927 310.27777C644.74927 312.76306 642.73456 314.77777 640.24927 314.77777C637.764 314.77777 635.74927 312.76306 635.74927 310.27777C635.74927 307.7925 637.764 305.77777 640.24927 305.77777C642.73456 305.77777 644.74927 307.7925 644.74927 310.27777Z" fill-rule="nonzero"/><path fill="#ff6d01" clip-path="url(#id_0)" d="M670.99915 238.06944C670.99915 240.55473 668.98444 242.56944 666.49915 242.56944C664.0139 242.56944 661.99915 240.55473 661.99915 238.06944C661.99915 235.58417 664.0139 233.56944 666.49915 233.56944C668.98444 233.56944 670.99915 235.58417 670.99915 238.06944Z" fill-rule="nonzero"/><path fill="#ff6d01" clip-path="url(#id_0)" d="M697.2491 334.34723C697.2491 336.8325 695.2344 338.84723 692.7491 338.84723C690.2638 338.84723 688.2491 336.8325 688.2491 334.34723C688.2491 331.86194 690.2638 329.84723 692.7491 329.84723C695.2344 329.84723 697.2491 331.86194 697.2491 334.34723Z" fill-rule="nonzero"/><path fill="#ff6d01" clip-path="url(#id_0)" d="M723.499 93.65278C723.499 96.13806 721.4843 98.15278 718.999 98.15278C716.51373 98.15278 714.499 96.13806 714.499 93.65278C714.499 91.167496 716.51373 89.15278 718.999 89.15278C721.4843 89.15278 723.499 91.167496 723.499 93.65278Z" fill-rule="nonzero"/><path fill="#34a853" clip-path="url(#id_0)" d="M93.501 382.4861C93.501 384.9714 91.486275 386.9861 89.001 386.9861C86.51572 386.9861 84.501 384.9714 84.501 382.4861C84.501 380.00082 86.51572 377.9861 89.001 377.9861C91.486275 377.9861 93.501 380.00082 93.501 382.4861Z" fill-rule="nonzero"/><path fill="#34a853" clip-path="url(#id_0)" d="M119.750916 382.4861C119.750916 384.9714 117.73619 386.9861 115.250916 386.9861C112.76563 386.9861 110.750916 384.9714 110.750916 382.4861C110.750916 380.00082 112.76563 377.9861 115.250916 377.9861C117.73619 377.9861 119.750916 380.00082 119.750916 382.4861Z" fill-rule="nonzero"/><path fill="#34a853" clip-path="url(#id_0)" d="M146.00082 358.41666C146.00082 360.90195 143.98611 362.91666 141.50082 362.91666C139.01555 362.91666 137.00082 360.90195 137.00082 358.41666C137.00082 355.9314 139.01555 353.91666 141.50082 353.91666C143.98611 353.91666 146.00082 355.9314 146.00082 358.41666Z" fill-rule="nonzero"/><path fill="#34a853" clip-path="url(#id_0)" d="M172.25075 382.4861C172.25075 384.9714 170.23602 386.9861 167.75075 386.9861C165.26547 386.9861 163.25075 384.9714 163.25075 382.4861C163.25075 380.00082 165.26547 377.9861 167.75075 377.9861C170.23602 377.9861 172.25075 380.00082 172.25075 382.4861Z" fill-rule="nonzero"/><path fill="#34a853" clip-path="url(#id_0)" d="M198.50067 358.41666C198.50067 360.90195 196.48595 362.91666 194.00067 362.91666C191.51538 362.91666 189.50067 360.90195 189.50067 358.41666C189.50067 355.9314 191.51538 353.91666 194.00067 353.91666C196.48595 353.91666 198.50067 355.9314 198.50067 358.41666Z" fill-rule="nonzero"/><path fill="#34a853" clip-path="url(#id_0)" d="M224.75058 358.41666C224.75058 360.90195 222.73586 362.91666 220.25058 362.91666C217.7653 362.91666 215.75058 360.90195 215.75058 358.41666C215.75058 355.9314 217.7653 353.91666 220.25058 353.91666C222.73586 353.91666 224.75058 355.9314 224.75058 358.41666Z" fill-rule="nonzero"/><path fill="#34a853" clip-path="url(#id_0)" d="M251.0005 334.34723C251.0005 336.8325 248.98578 338.84723 246.5005 338.84723C244.01521 338.84723 242.0005 336.8325 242.0005 334.34723C242.0005 331.86194 244.01521 329.84723 246.5005 329.84723C248.98578 329.84723 251.0005 331.86194 251.0005 334.34723Z" fill-rule="nonzero"/><path fill="#34a853" clip-path="url(#id_0)" d="M277.25043 238.06944C277.25043 240.55473 275.2357 242.56944 272.75043 242.56944C270.26514 242.56944 268.25043 240.55473 268.25043 238.06944C268.25043 235.58417 270.26514 233.56944 272.75043 233.56944C275.2357 233.56944 277.25043 235.58417 277.25043 238.06944Z" fill-rule="nonzero"/><path fill="#34a853" clip-path="url(#id_0)" d="M303.50034 117.72222C303.50034 120.207504 301.48563 122.22222 299.00034 122.22222C296.51505 122.22222 294.50034 120.207504 294.50034 117.72222C294.50034 115.23694 296.51505 113.22222 299.00034 113.22222C301.48563 113.22222 303.50034 115.23694 303.50034 117.72222Z" fill-rule="nonzero"/><path fill="#34a853" clip-path="url(#id_0)" d="M329.75024 238.06944C329.75024 240.55473 327.73553 242.56944 325.25024 242.56944C322.76495 242.56944 320.75024 240.55473 320.75024 238.06944C320.75024 235.58417 322.76495 233.56944 325.25024 233.56944C327.73553 233.56944 329.75024 235.58417 329.75024 238.06944Z" fill-rule="nonzero"/><path fill="#34a853" clip-path="url(#id_0)" d="M356.00015 262.1389C356.00015 264.62418 353.98544 266.6389 351.50015 266.6389C349.0149 266.6389 347.00015 264.62418 347.00015 262.1389C347.00015 259.6536 349.0149 257.6389 351.50015 257.6389C353.98544 257.6389 356.00015 259.6536 356.00015 262.1389Z" fill-rule="nonzero"/><path fill="#34a853" clip-path="url(#id_0)" d="M382.2501 358.41666C382.2501 360.90195 380.23535 362.91666 377.7501 362.91666C375.2648 362.91666 373.2501 360.90195 373.2501 358.41666C373.2501 355.9314 375.2648 353.91666 377.7501 353.91666C380.23535 353.91666 382.2501 355.9314 382.2501 358.41666Z" fill-rule="nonzero"/><path fill="#34a853" clip-path="url(#id_0)" d="M408.5 358.41666C408.5 360.90195 406.4853 362.91666 404.0 362.91666C401.5147 362.91666 399.5 360.90195 399.5 358.41666C399.5 355.9314 401.5147 353.91666 404.0 353.91666C406.4853 353.91666 408.5 355.9314 408.5 358.41666Z" fill-rule="nonzero"/><path fill="#34a853" clip-path="url(#id_0)" d="M434.7499 382.4861C434.7499 384.9714 432.7352 386.9861 430.2499 386.9861C427.76465 386.9861 425.7499 384.9714 425.7499 382.4861C425.7499 380.00082 427.76465 377.9861 430.2499 377.9861C432.7352 377.9861 434.7499 380.00082 434.7499 382.4861Z" fill-rule="nonzero"/><path fill="#34a853" clip-path="url(#id_0)" d="M460.99985 382.4861C460.99985 384.9714 458.9851 386.9861 456.49985 386.9861C454.01456 386.9861 451.99985 384.9714 451.99985 382.4861C451.99985 380.00082 454.01456 377.9861 456.49985 377.9861C458.9851 377.9861 460.99985 380.00082 460.99985 382.4861Z" fill-rule="nonzero"/><path fill="#34a853" clip-path="url(#id_0)" d="M487.24976 382.4861C487.24976 384.9714 485.23505 386.9861 482.74976 386.9861C480.26447 386.9861 478.24976 384.9714 478.24976 382.4861C478.24976 380.00082 480.26447 377.9861 482.74976 377.9861C485.23505 377.9861 487.24976 380.00082 487.24976 382.4861Z" fill-rule="nonzero"/><path fill="#34a853" clip-path="url(#id_0)" d="M513.4997 382.4861C513.4997 384.9714 511.48495 386.9861 508.99966 386.9861C506.51437 386.9861 504.49966 384.9714 504.49966 382.4861C504.49966 380.00082 506.51437 377.9861 508.99966 377.9861C511.48495 377.9861 513.4997 380.00082 513.4997 382.4861Z" fill-rule="nonzero"/><path fill="#34a853" clip-path="url(#id_0)" d="M539.7496 382.4861C539.7496 384.9714 537.73486 386.9861 535.2496 386.9861C532.7643 386.9861 530.7496 384.9714 530.7496 382.4861C530.7496 380.00082 532.7643 377.9861 535.2496 377.9861C537.73486 377.9861 539.7496 380.00082 539.7496 382.4861Z" fill-rule="nonzero"/><path fill="#34a853" clip-path="url(#id_0)" d="M565.9995 358.41666C565.9995 360.90195 563.9848 362.91666 561.4995 362.91666C559.0142 362.91666 556.9995 360.90195 556.9995 358.41666C556.9995 355.9314 559.0142 353.91666 561.4995 353.91666C563.9848 353.91666 565.9995 355.9314 565.9995 358.41666Z" fill-rule="nonzero"/><path fill="#34a853" clip-path="url(#id_0)" d="M592.2494 382.4861C592.2494 384.9714 590.2347 386.9861 587.7494 386.9861C585.26416 386.9861 583.2494 384.9714 583.2494 382.4861C583.2494 380.00082 585.26416 377.9861 587.7494 377.9861C590.2347 377.9861 592.2494 380.00082 592.2494 382.4861Z" fill-rule="nonzero"/><path fill="#34a853" clip-path="url(#id_0)" d="M618.4993 382.4861C618.4993 384.9714 616.4846 386.9861 613.9993 386.9861C611.51404 386.9861 609.4993 384.9714 609.4993 382.4861C609.4993 380.00082 611.51404 377.9861 613.9993 377.9861C616.4846 377.9861 618.4993 380.00082 618.4993 382.4861Z" fill-rule="nonzero"/><path fill="#34a853" clip-path="url(#id_0)" d="M644.74927 382.4861C644.74927 384.9714 642.73456 386.9861 640.24927 386.9861C637.764 386.9861 635.74927 384.9714 635.74927 382.4861C635.74927 380.00082 637.764 377.9861 640.24927 377.9861C642.73456 377.9861 644.74927 380.00082 644.74927 382.4861Z" fill-rule="nonzero"/><path fill="#34a853" clip-path="url(#id_0)" d="M670.99915 382.4861C670.99915 384.9714 668.98444 386.9861 666.49915 386.9861C664.0139 386.9861 661.99915 384.9714 661.99915 382.4861C661.99915 380.00082 664.0139 377.9861 666.49915 377.9861C668.98444 377.9861 670.99915 380.00082 670.99915 382.4861Z" fill-rule="nonzero"/><path fill="#34a853" clip-path="url(#id_0)" d="M697.2491 358.41666C697.2491 360.90195 695.2344 362.91666 692.7491 362.91666C690.2638 362.91666 688.2491 360.90195 688.2491 358.41666C688.2491 355.9314 690.2638 353.91666 692.7491 353.91666C695.2344 353.91666 697.2491 355.9314 697.2491 358.41666Z" fill-rule="nonzero"/><path fill="#34a853" clip-path="url(#id_0)" d="M723.499 310.27777C723.499 312.76306 721.4843 314.77777 718.999 314.77777C716.51373 314.77777 714.499 312.76306 714.499 310.27777C714.499 307.7925 716.51373 305.77777 718.999 305.77777C721.4843 305.77777 723.499 307.7925 723.499 310.27777Z" fill-rule="nonzero"/><path fill="#4285f4" clip-path="url(#id_0)" d="M93.501 310.27777C93.501 312.76306 91.486275 314.77777 89.001 314.77777C86.51572 314.77777 84.501 312.76306 84.501 310.27777C84.501 307.7925 86.51572 305.77777 89.001 305.77777C91.486275 305.77777 93.501 307.7925 93.501 310.27777Z" fill-rule="nonzero"/><path fill="#4285f4" clip-path="url(#id_0)" d="M119.750916 358.41666C119.750916 360.90195 117.73619 362.91666 115.250916 362.91666C112.76563 362.91666 110.750916 360.90195 110.750916 358.41666C110.750916 355.9314 112.76563 353.91666 115.250916 353.91666C117.73619 353.91666 119.750916 355.9314 119.750916 358.41666Z" fill-rule="nonzero"/><path fill="#4285f4" clip-path="url(#id_0)" d="M146.00082 214.0C146.00082 216.48528 143.98611 218.5 141.50082 218.5C139.01555 218.5 137.00082 216.48528 137.00082 214.0C137.00082 211.51472 139.01555 209.5 141.50082 209.5C143.98611 209.5 146.00082 211.51472 146.00082 214.0Z" fill-rule="nonzero"/><path fill="#4285f4" clip-path="url(#id_0)" d="M172.25075 117.72222C172.25075 120.207504 170.23602 122.22222 167.75075 122.22222C165.26547 122.22222 163.25075 120.207504 163.25075 117.72222C163.25075 115.23694 165.26547 113.22222 167.75075 113.22222C170.23602 113.22222 172.25075 115.23694 172.25075 117.72222Z" fill-rule="nonzero"/><path fill="#4285f4" clip-path="url(#id_0)" d="M198.50067 214.0C198.50067 216.48528 196.48595 218.5 194.00067 218.5C191.51538 218.5 189.50067 216.48528 189.50067 214.0C189.50067 211.51472 191.51538 209.5 194.00067 209.5C196.48595 209.5 198.50067 211.51472 198.50067 214.0Z" fill-rule="nonzero"/><path fill="#4285f4" clip-path="url(#id_0)" d="M224.75058 262.1389C224.75058 264.62418 222.73586 266.6389 220.25058 266.6389C217.7653 266.6389 215.75058 264.62418 215.75058 262.1389C215.75058 259.6536 217.7653 257.6389 220.25058 257.6389C222.73586 257.6389 224.75058 259.6536 224.75058 262.1389Z" fill-rule="nonzero"/><path fill="#4285f4" clip-path="url(#id_0)" d="M251.0005 358.41666C251.0005 360.90195 248.98578 362.91666 246.5005 362.91666C244.01521 362.91666 242.0005 360.90195 242.0005 358.41666C242.0005 355.9314 244.01521 353.91666 246.5005 353.91666C248.98578 353.91666 251.0005 355.9314 251.0005 358.41666Z" fill-rule="nonzero"/><path fill="#4285f4" clip-path="url(#id_0)" d="M277.25043 382.4861C277.25043 384.9714 275.2357 386.9861 272.75043 386.9861C270.26514 386.9861 268.25043 384.9714 268.25043 382.4861C268.25043 380.00082 270.26514 377.9861 272.75043 377.9861C275.2357 377.9861 277.25043 380.00082 277.25043 382.4861Z" fill-rule="nonzero"/><path fill="#4285f4" clip-path="url(#id_0)" d="M303.50034 382.4861C303.50034 384.9714 301.48563 386.9861 299.00034 386.9861C296.51505 386.9861 294.50034 384.9714 294.50034 382.4861C294.50034 380.00082 296.51505 377.9861 299.00034 377.9861C301.48563 377.9861 303.50034 380.00082 303.50034 382.4861Z" fill-rule="nonzero"/><path fill="#4285f4" clip-path="url(#id_0)" d="M329.75024 358.41666C329.75024 360.90195 327.73553 362.91666 325.25024 362.91666C322.76495 362.91666 320.75024 360.90195 320.75024 358.41666C320.75024 355.9314 322.76495 353.91666 325.25024 353.91666C327.73553 353.91666 329.75024 355.9314 329.75024 358.41666Z" fill-rule="nonzero"/><path fill="#4285f4" clip-path="url(#id_0)" d="M356.00015 382.4861C356.00015 384.9714 353.98544 386.9861 351.50015 386.9861C349.0149 386.9861 347.00015 384.9714 347.00015 382.4861C347.00015 380.00082 349.0149 377.9861 351.50015 377.9861C353.98544 377.9861 356.00015 380.00082 356.00015 382.4861Z" fill-rule="nonzero"/><path fill="#4285f4" clip-path="url(#id_0)" d="M382.2501 382.4861C382.2501 384.9714 380.23535 386.9861 377.7501 386.9861C375.2648 386.9861 373.2501 384.9714 373.2501 382.4861C373.2501 380.00082 375.2648 377.9861 377.7501 377.9861C380.23535 377.9861 382.2501 380.00082 382.2501 382.4861Z" fill-rule="nonzero"/><path fill="#4285f4" clip-path="url(#id_0)" d="M408.5 358.41666C408.5 360.90195 406.4853 362.91666 404.0 362.91666C401.5147 362.91666 399.5 360.90195 399.5 358.41666C399.5 355.9314 401.5147 353.91666 404.0 353.91666C406.4853 353.91666 408.5 355.9314 408.5 358.41666Z" fill-rule="nonzero"/><path fill="#4285f4" clip-path="url(#id_0)" d="M434.7499 334.34723C434.7499 336.8325 432.7352 338.84723 430.2499 338.84723C427.76465 338.84723 425.7499 336.8325 425.7499 334.34723C425.7499 331.86194 427.76465 329.84723 430.2499 329.84723C432.7352 329.84723 434.7499 331.86194 434.7499 334.34723Z" fill-rule="nonzero"/><path fill="#4285f4" clip-path="url(#id_0)" d="M460.99985 382.4861C460.99985 384.9714 458.9851 386.9861 456.49985 386.9861C454.01456 386.9861 451.99985 384.9714 451.99985 382.4861C451.99985 380.00082 454.01456 377.9861 456.49985 377.9861C458.9851 377.9861 460.99985 380.00082 460.99985 382.4861Z" fill-rule="nonzero"/><path fill="#4285f4" clip-path="url(#id_0)" d="M487.24976 382.4861C487.24976 384.9714 485.23505 386.9861 482.74976 386.9861C480.26447 386.9861 478.24976 384.9714 478.24976 382.4861C478.24976 380.00082 480.26447 377.9861 482.74976 377.9861C485.23505 377.9861 487.24976 380.00082 487.24976 382.4861Z" fill-rule="nonzero"/><path fill="#4285f4" clip-path="url(#id_0)" d="M513.4997 358.41666C513.4997 360.90195 511.48495 362.91666 508.99966 362.91666C506.51437 362.91666 504.49966 360.90195 504.49966 358.41666C504.49966 355.9314 506.51437 353.91666 508.99966 353.91666C511.48495 353.91666 513.4997 355.9314 513.4997 358.41666Z" fill-rule="nonzero"/><path fill="#4285f4" clip-path="url(#id_0)" d="M539.7496 382.4861C539.7496 384.9714 537.73486 386.9861 535.2496 386.9861C532.7643 386.9861 530.7496 384.9714 530.7496 382.4861C530.7496 380.00082 532.7643 377.9861 535.2496 377.9861C537.73486 377.9861 539.7496 380.00082 539.7496 382.4861Z" fill-rule="nonzero"/><path fill="#4285f4" clip-path="url(#id_0)" d="M565.9995 382.4861C565.9995 384.9714 563.9848 386.9861 561.4995 386.9861C559.0142 386.9861 556.9995 384.9714 556.9995 382.4861C556.9995 380.00082 559.0142 377.9861 561.4995 377.9861C563.9848 377.9861 565.9995 380.00082 565.9995 382.4861Z" fill-rule="nonzero"/><path fill="#4285f4" clip-path="url(#id_0)" d="M592.2494 382.4861C592.2494 384.9714 590.2347 386.9861 587.7494 386.9861C585.26416 386.9861 583.2494 384.9714 583.2494 382.4861C583.2494 380.00082 585.26416 377.9861 587.7494 377.9861C590.2347 377.9861 592.2494 380.00082 592.2494 382.4861Z" fill-rule="nonzero"/><path fill="#4285f4" clip-path="url(#id_0)" d="M618.4993 382.4861C618.4993 384.9714 616.4846 386.9861 613.9993 386.9861C611.51404 386.9861 609.4993 384.9714 609.4993 382.4861C609.4993 380.00082 611.51404 377.9861 613.9993 377.9861C616.4846 377.9861 618.4993 380.00082 618.4993 382.4861Z" fill-rule="nonzero"/><path fill="#4285f4" clip-path="url(#id_0)" d="M644.74927 382.4861C644.74927 384.9714 642.73456 386.9861 640.24927 386.9861C637.764 386.9861 635.74927 384.9714 635.74927 382.4861C635.74927 380.00082 637.764 377.9861 640.24927 377.9861C642.73456 377.9861 644.74927 380.00082 644.74927 382.4861Z" fill-rule="nonzero"/><path fill="#4285f4" clip-path="url(#id_0)" d="M670.99915 382.4861C670.99915 384.9714 668.98444 386.9861 666.49915 386.9861C664.0139 386.9861 661.99915 384.9714 661.99915 382.4861C661.99915 380.00082 664.0139 377.9861 666.49915 377.9861C668.98444 377.9861 670.99915 380.00082 670.99915 382.4861Z" fill-rule="nonzero"/><path fill="#4285f4" clip-path="url(#id_0)" d="M697.2491 382.4861C697.2491 384.9714 695.2344 386.9861 692.7491 386.9861C690.2638 386.9861 688.2491 384.9714 688.2491 382.4861C688.2491 380.00082 690.2638 377.9861 692.7491 377.9861C695.2344 377.9861 697.2491 380.00082 697.2491 382.4861Z" fill-rule="nonzero"/><path fill="#4285f4" clip-path="url(#id_0)" d="M723.499 382.4861C723.499 384.9714 721.4843 386.9861 718.999 386.9861C716.51373 386.9861 714.499 384.9714 714.499 382.4861C714.499 380.00082 716.51373 377.9861 718.999 377.9861C721.4843 377.9861 723.499 380.00082 723.499 382.4861Z" fill-rule="nonzero"/><path fill="#cccccc" d="M393.4375 407.41666L393.4375 398.8229L397.25 398.8229Q398.40625 398.8229 399.0 399.05728Q399.59375 399.29166 399.95312 399.8854Q400.3125 400.46353 400.3125 401.16666Q400.3125 402.08853 399.71875 402.71353Q399.125 403.33853 397.89062 403.5104Q398.34375 403.72916 398.57812 403.93228Q399.07812 404.3854 399.51562 405.0729L401.01562 407.41666L399.57812 407.41666L398.45312 405.6354Q397.95312 404.85416 397.625 404.4479Q397.3125 404.04166 397.04688 403.8854Q396.79688 403.71353 396.53125 403.6354Q396.34375 403.60416 395.90625 403.60416L394.57812 403.60416L394.57812 407.41666L393.4375 407.41666ZM394.57812 402.61978L397.03125 402.61978Q397.79688 402.61978 398.23438 402.46353Q398.6875 402.29166 398.90625 401.9479Q399.14062 401.58853 399.14062 401.16666Q399.14062 400.55728 398.6875 400.16666Q398.25 399.77603 397.29688 399.77603L394.57812 399.77603L394.57812 402.61978ZM404.60938 407.41666L404.60938 399.83853L401.78125 399.83853L401.78125 398.8229L408.59375 398.8229L408.59375 399.83853L405.75 399.83853L405.75 407.41666L404.60938 407.41666ZM411.60938 407.41666L411.60938 399.83853L408.78125 399.83853L408.78125 398.8229L415.59375 398.8229L415.59375 399.83853L412.75 399.83853L412.75 407.41666L411.60938 407.41666Z" fill-rule="nonzero"/><path fill="#b7b7b7" d="M35.228115 221.53125Q34.946865 223.78125 34.05624 225.51562Q35.040615 227.15625 35.27499 229.45312L34.290615 229.82812Q34.103115 227.71875 33.39999 226.3125Q32.64999 227.0625 31.80624 227.67188L31.80624 228.98438L31.05624 228.98438L31.05624 223.5L30.915615 223.35938L31.478115 222.65625Q31.759365 222.46875 31.71249 222.84375Q32.64999 223.64062 33.446865 224.76562Q34.009365 223.125 34.14999 221.29688L35.228115 221.53125ZM25.665615 225.79688L25.665615 221.57812L26.55624 221.57812L26.55624 229.875L30.68124 229.875Q33.30624 229.875 35.08749 231.04688L34.384365 231.89062Q32.93124 230.8125 30.49374 230.8125L25.665615 230.8125L25.665615 226.875L24.446865 226.875L24.446865 225.84375Q24.49374 225.46875 24.728115 225.79688L25.665615 225.79688ZM32.93124 225.51562Q32.55624 224.95312 31.80624 224.20312L31.80624 226.64062Q32.36874 226.17188 32.93124 225.51562ZM30.39999 223.82812L30.39999 224.76562L30.11874 224.76562L30.11874 226.78125L30.446865 226.78125L30.446865 227.71875L28.571865 227.71875L28.571865 229.59375L27.821865 229.59375L27.821865 227.71875L26.93124 227.71875L26.93124 226.82812Q26.978115 226.45312 27.21249 226.78125L27.821865 226.78125L27.821865 224.76562L26.83749 224.76562L26.83749 223.875Q26.884365 223.5 27.11874 223.82812L27.821865 223.82812L27.821865 221.57812L28.571865 221.57812L28.571865 223.82812L30.39999 223.82812ZM28.571865 224.76562L28.571865 226.78125L29.36874 226.78125L29.36874 224.76562L28.571865 224.76562ZM31.571865 211.78125Q30.30624 211.125 27.728115 210.98438L27.728115 212.57812Q30.30624 212.4375 31.571865 211.78125ZM27.728115 210.04688Q30.634365 210.14062 32.415615 211.17188Q33.353115 210.42188 34.05624 209.0625L35.08749 209.67188Q34.103115 211.17188 33.21249 211.78125Q34.43124 212.85938 35.321865 215.10938L34.384365 215.57812Q33.39999 213.14062 32.36874 212.34375Q30.821865 213.14062 29.27499 213.23438Q29.978115 213.51562 30.353115 213.79688L29.74374 214.59375Q27.68124 213.1875 24.634365 212.90625L24.86874 211.92188Q25.05624 211.64062 25.14999 212.0625Q25.99374 212.20312 26.83749 212.4375L26.83749 209.25L27.728115 209.25L27.728115 210.04688ZM25.478115 214.40625Q26.18124 214.6875 26.64999 215.0625L26.228115 215.8125Q25.61874 215.4375 24.821865 215.10938L25.24374 214.26562Q25.43124 214.07812 25.478115 214.40625ZM32.08749 217.40625Q32.27499 216.75 32.509365 216.23438Q32.08749 215.85938 31.24374 215.625L31.24374 216.98438Q31.665615 217.17188 32.08749 217.40625ZM33.259365 218.0625L32.83749 218.8125Q32.134365 218.34375 31.24374 217.875L31.24374 219.65625L30.49374 219.65625L30.49374 217.59375Q29.884365 217.3125 29.46249 217.17188L29.696865 216.28125Q29.884365 216.09375 29.93124 216.42188L30.49374 216.70312L30.49374 214.03125L31.24374 214.03125L31.24374 214.73438Q32.18124 214.96875 32.83749 215.4375Q33.02499 215.01562 33.30624 214.54688L34.05624 214.96875Q33.728115 215.48438 33.540615 215.90625Q34.759365 217.125 35.040615 219.1875L34.196865 219.51562Q34.009365 217.6875 33.165615 216.70312Q32.93124 217.21875 32.74374 217.73438L33.259365 218.0625ZM24.446865 217.125L24.446865 216.375Q24.49374 216.0 24.728115 216.32812L26.74374 216.32812L26.74374 213.9375L27.49374 213.9375L27.49374 215.90625Q28.103115 215.39062 28.665615 214.3125L29.46249 214.82812Q28.99374 215.625 28.14999 216.32812L29.27499 216.32812L29.27499 217.125L28.384365 217.125Q29.321865 217.875 30.071865 219.1875L29.321865 219.79688Q28.571865 218.34375 27.49374 217.40625L27.49374 219.5625L26.74374 219.5625L26.74374 217.125L24.446865 217.125ZM26.603115 218.4375Q25.89999 218.76562 25.384365 219.28125L24.915615 218.53125Q25.478115 217.96875 26.08749 217.6875L26.603115 218.4375Z" fill-rule="nonzero"/><path fill="#999999" d="M73.61875 362.41666L72.57188 362.41666L72.57188 355.6979Q72.18125 356.05728 71.55625 356.43228Q70.94688 356.79166 70.4625 356.96353L70.4625 355.9479Q71.3375 355.52603 71.99375 354.9479Q72.66563 354.35416 72.94688 353.79166L73.61875 353.79166L73.61875 362.41666Z" fill-rule="nonzero"/><path fill="#999999" d="M73.025 290.20834L73.025 288.14584L69.30625 288.14584L69.30625 287.1771L73.22813 281.6146L74.0875 281.6146L74.0875 287.1771L75.24375 287.1771L75.24375 288.14584L74.0875 288.14584L74.0875 290.20834L73.025 290.20834ZM73.025 287.1771L73.025 283.31772L70.3375 287.1771L73.025 287.1771Z" fill-rule="nonzero"/><path fill="#999999" d="M69.7125 210.53125L69.7125 209.51562L75.275 209.51562L75.275 210.34375Q74.4625 211.21875 73.65 212.67188Q72.85313 214.10938 72.41563 215.64062Q72.0875 216.71875 72.00938 218.0L70.91563 218.0Q70.93125 216.98438 71.30625 215.54688Q71.69688 214.10938 72.4 212.78125Q73.11875 211.45312 73.93125 210.53125L69.7125 210.53125Z" fill-rule="nonzero"/><path fill="#999999" d="M66.61875 145.79167L65.57188 145.79167L65.57188 139.07292Q65.18125 139.4323 64.55625 139.8073Q63.946877 140.16667 63.4625 140.33855L63.4625 139.32292Q64.3375 138.90105 64.99375 138.32292Q65.66563 137.72917 65.94688 137.16667L66.61875 137.16667L66.61875 145.79167ZM69.65 141.5573Q69.65 140.02605 69.9625 139.10417Q70.275 138.16667 70.88438 137.66667Q71.50938 137.16667 72.44688 137.16667Q73.13438 137.16667 73.65 137.44792Q74.18125 137.72917 74.525 138.26042Q74.86875 138.77605 75.05625 139.52605Q75.24375 140.27605 75.24375 141.5573Q75.24375 143.07292 74.93125 143.9948Q74.63438 144.91667 74.00938 145.4323Q73.4 145.9323 72.44688 145.9323Q71.2125 145.9323 70.49375 145.04167Q69.65 143.97917 69.65 141.5573ZM70.72813 141.5573Q70.72813 143.66667 71.22813 144.3698Q71.72813 145.07292 72.44688 145.07292Q73.18125 145.07292 73.66563 144.3698Q74.16563 143.66667 74.16563 141.5573Q74.16563 139.4323 73.66563 138.7448Q73.18125 138.04167 72.43125 138.04167Q71.7125 138.04167 71.275 138.65105Q70.72813 139.4323 70.72813 141.5573Z" fill-rule="nonzero"/><path fill="#999999" d="M66.61875 73.583336L65.57188 73.583336L65.57188 66.864586Q65.18125 67.22396 64.55625 67.59896Q63.946877 67.958336 63.4625 68.13021L63.4625 67.114586Q64.3375 66.69271 64.99375 66.114586Q65.66563 65.520836 65.94688 64.958336L66.61875 64.958336L66.61875 73.583336ZM69.65 71.31771L70.7125 71.177086Q70.88438 72.06771 71.32188 72.47396Q71.75938 72.864586 72.38438 72.864586Q73.13438 72.864586 73.65 72.34896Q74.16563 71.833336 74.16563 71.06771Q74.16563 70.34896 73.68125 69.88021Q73.2125 69.395836 72.47813 69.395836Q72.18125 69.395836 71.72813 69.520836L71.85313 68.583336Q71.9625 68.59896 72.025 68.59896Q72.69688 68.59896 73.22813 68.25521Q73.775 67.895836 73.775 67.16146Q73.775 66.583336 73.38438 66.208336Q72.99375 65.81771 72.36875 65.81771Q71.75938 65.81771 71.3375 66.208336Q70.93125 66.59896 70.82188 67.364586L69.75938 67.177086Q69.94688 66.13021 70.63438 65.552086Q71.32188 64.958336 72.3375 64.958336Q73.04063 64.958336 73.63438 65.270836Q74.22813 65.56771 74.54063 66.083336Q74.85313 66.59896 74.85313 67.19271Q74.85313 67.739586 74.55625 68.208336Q74.25938 68.66146 73.68125 68.927086Q74.43125 69.09896 74.85313 69.66146Q75.275 70.208336 75.275 71.052086Q75.275 72.177086 74.44688 72.958336Q73.63438 73.739586 72.38438 73.739586Q71.25938 73.739586 70.50938 73.06771Q69.75938 72.38021 69.65 71.31771Z" fill-rule="nonzero"/><path fill="#b7b7b7" d="M74.501 373.16666L75.610374 373.0729Q75.735374 373.8854 76.172874 374.29166Q76.626 374.6979 77.266624 374.6979Q78.016624 374.6979 78.547874 374.11978Q79.079124 373.54166 79.079124 372.60416Q79.079124 371.6979 78.5635 371.18228Q78.0635 370.65103 77.235374 370.65103Q76.735374 370.65103 76.3135 370.8854Q75.90725 371.11978 75.672874 371.47916L74.6885 371.35416L75.516624 366.9479L79.797874 366.9479L79.797874 367.9479L76.360374 367.9479L75.90725 370.2604Q76.672874 369.71353 77.516624 369.71353Q78.641624 369.71353 79.40725 370.49478Q80.1885 371.27603 80.1885 372.5104Q80.1885 373.66666 79.516624 374.52603Q78.6885 375.55728 77.266624 375.55728Q76.09475 375.55728 75.34475 374.90103Q74.610374 374.24478 74.501 373.16666ZM81.501 371.18228Q81.501 369.65103 81.8135 368.72916Q82.126 367.79166 82.735374 367.29166Q83.360374 366.79166 84.297874 366.79166Q84.985374 366.79166 85.501 367.0729Q86.03225 367.35416 86.376 367.8854Q86.71975 368.40103 86.90725 369.15103Q87.09475 369.90103 87.09475 371.18228Q87.09475 372.6979 86.78225 373.61978Q86.485374 374.54166 85.860374 375.05728Q85.251 375.55728 84.297874 375.55728Q83.0635 375.55728 82.34475 374.66666Q81.501 373.60416 81.501 371.18228ZM82.579124 371.18228Q82.579124 373.29166 83.079124 373.99478Q83.579124 374.6979 84.297874 374.6979Q85.03225 374.6979 85.516624 373.99478Q86.016624 373.29166 86.016624 371.18228Q86.016624 369.05728 85.516624 368.36978Q85.03225 367.66666 84.28225 367.66666Q83.5635 367.66666 83.126 368.27603Q82.579124 369.05728 82.579124 371.18228ZM88.797874 375.41666L88.797874 369.1979L89.735374 369.1979L89.735374 370.0729Q90.03225 369.60416 90.516624 369.33853Q91.001 369.05728 91.626 369.05728Q92.3135 369.05728 92.751 369.33853Q93.204124 369.61978 93.376 370.1354Q94.126 369.05728 95.297874 369.05728Q96.235374 369.05728 96.71975 369.5729Q97.21975 370.0729 97.21975 371.15103L97.21975 375.41666L96.172874 375.41666L96.172874 371.49478Q96.172874 370.86978 96.0635 370.58853Q95.96975 370.30728 95.704124 370.1354Q95.4385 369.96353 95.0635 369.96353Q94.40725 369.96353 93.96975 370.40103Q93.547874 370.83853 93.547874 371.80728L93.547874 375.41666L92.485374 375.41666L92.485374 371.36978Q92.485374 370.66666 92.21975 370.3229Q91.96975 369.96353 91.391624 369.96353Q90.9385 369.96353 90.5635 370.1979Q90.1885 370.43228 90.016624 370.8854Q89.84475 371.33853 89.84475 372.18228L89.84475 375.41666L88.797874 375.41666ZM98.376 373.55728L99.40725 373.40103Q99.501 374.02603 99.891624 374.35416Q100.297874 374.68228 101.03225 374.68228Q101.751 374.68228 102.09475 374.40103Q102.454124 374.10416 102.454124 373.6979Q102.454124 373.33853 102.141624 373.1354Q101.922874 372.99478 101.0635 372.77603Q99.90725 372.47916 99.454124 372.27603Q99.016624 372.05728 98.78225 371.68228Q98.547874 371.30728 98.547874 370.83853Q98.547874 370.43228 98.735374 370.0729Q98.922874 369.71353 99.251 369.47916Q99.501 369.30728 99.922874 369.18228Q100.34475 369.05728 100.84475 369.05728Q101.5635 369.05728 102.110374 369.27603Q102.672874 369.47916 102.9385 369.83853Q103.204124 370.1979 103.297874 370.79166L102.266624 370.93228Q102.204124 370.46353 101.860374 370.1979Q101.53225 369.91666 100.90725 369.91666Q100.1885 369.91666 99.876 370.16666Q99.5635 370.40103 99.5635 370.72916Q99.5635 370.93228 99.6885 371.08853Q99.829124 371.2604 100.09475 371.36978Q100.251 371.43228 101.03225 371.6354Q102.15725 371.9479 102.59475 372.1354Q103.03225 372.3229 103.28225 372.68228Q103.53225 373.04166 103.53225 373.58853Q103.53225 374.11978 103.21975 374.58853Q102.922874 375.04166 102.34475 375.30728Q101.766624 375.55728 101.03225 375.55728Q99.8135 375.55728 99.172874 375.05728Q98.547874 374.54166 98.376 373.55728Z" fill-rule="nonzero"/><path fill="#b7b7b7" d="M205.81308 367.9479L205.81308 366.93228L211.37558 366.93228L211.37558 367.7604Q210.56308 368.6354 209.75058 370.08853Q208.9537 371.52603 208.5162 373.05728Q208.18808 374.1354 208.10995 375.41666L207.0162 375.41666Q207.03183 374.40103 207.40683 372.96353Q207.79745 371.52603 208.50058 370.1979Q209.21933 368.86978 210.03183 367.9479L205.81308 367.9479ZM212.75058 373.16666L213.85995 373.0729Q213.98495 373.8854 214.42245 374.29166Q214.87558 374.6979 215.5162 374.6979Q216.2662 374.6979 216.79745 374.11978Q217.3287 373.54166 217.3287 372.60416Q217.3287 371.6979 216.81308 371.18228Q216.31308 370.65103 215.48495 370.65103Q214.98495 370.65103 214.56308 370.8854Q214.15683 371.11978 213.92245 371.47916L212.93808 371.35416L213.7662 366.9479L218.04745 366.9479L218.04745 367.9479L214.60995 367.9479L214.15683 370.2604Q214.92245 369.71353 215.7662 369.71353Q216.8912 369.71353 217.65683 370.49478Q218.43808 371.27603 218.43808 372.5104Q218.43808 373.66666 217.7662 374.52603Q216.93808 375.55728 215.5162 375.55728Q214.34433 375.55728 213.59433 374.90103Q212.85995 374.24478 212.75058 373.16666ZM220.04745 375.41666L220.04745 369.1979L220.98495 369.1979L220.98495 370.0729Q221.28183 369.60416 221.7662 369.33853Q222.25058 369.05728 222.87558 369.05728Q223.56308 369.05728 224.00058 369.33853Q224.4537 369.61978 224.62558 370.1354Q225.37558 369.05728 226.54745 369.05728Q227.48495 369.05728 227.96933 369.5729Q228.46933 370.0729 228.46933 371.15103L228.46933 375.41666L227.42245 375.41666L227.42245 371.49478Q227.42245 370.86978 227.31308 370.58853Q227.21933 370.30728 226.9537 370.1354Q226.68808 369.96353 226.31308 369.96353Q225.65683 369.96353 225.21933 370.40103Q224.79745 370.83853 224.79745 371.80728L224.79745 375.41666L223.73495 375.41666L223.73495 371.36978Q223.73495 370.66666 223.46933 370.3229Q223.21933 369.96353 222.6412 369.96353Q222.18808 369.96353 221.81308 370.1979Q221.43808 370.43228 221.2662 370.8854Q221.09433 371.33853 221.09433 372.18228L221.09433 375.41666L220.04745 375.41666ZM229.62558 373.55728L230.65683 373.40103Q230.75058 374.02603 231.1412 374.35416Q231.54745 374.68228 232.28183 374.68228Q233.00058 374.68228 233.34433 374.40103Q233.7037 374.10416 233.7037 373.6979Q233.7037 373.33853 233.3912 373.1354Q233.17245 372.99478 232.31308 372.77603Q231.15683 372.47916 230.7037 372.27603Q230.2662 372.05728 230.03183 371.68228Q229.79745 371.30728 229.79745 370.83853Q229.79745 370.43228 229.98495 370.0729Q230.17245 369.71353 230.50058 369.47916Q230.75058 369.30728 231.17245 369.18228Q231.59433 369.05728 232.09433 369.05728Q232.81308 369.05728 233.35995 369.27603Q233.92245 369.47916 234.18808 369.83853Q234.4537 370.1979 234.54745 370.79166L233.5162 370.93228Q233.4537 370.46353 233.10995 370.1979Q232.78183 369.91666 232.15683 369.91666Q231.43808 369.91666 231.12558 370.16666Q230.81308 370.40103 230.81308 370.72916Q230.81308 370.93228 230.93808 371.08853Q231.0787 371.2604 231.34433 371.36978Q231.50058 371.43228 232.28183 371.6354Q233.40683 371.9479 233.84433 372.1354Q234.28183 372.3229 234.53183 372.68228Q234.78183 373.04166 234.78183 373.58853Q234.78183 374.11978 234.46933 374.58853Q234.17245 375.04166 233.59433 375.30728Q233.0162 375.55728 232.28183 375.55728Q231.06308 375.55728 230.42245 375.05728Q229.79745 374.54166 229.62558 373.55728Z" fill-rule="nonzero"/><path fill="#b7b7b7" d="M337.4689 375.41666L336.42203 375.41666L336.42203 368.6979Q336.0314 369.05728 335.4064 369.43228Q334.79703 369.79166 334.31265 369.96353L334.31265 368.9479Q335.18765 368.52603 335.8439 367.9479Q336.51578 367.35416 336.79703 366.79166L337.4689 366.79166L337.4689 375.41666ZM340.50015 371.18228Q340.50015 369.65103 340.81265 368.72916Q341.12515 367.79166 341.73453 367.29166Q342.35953 366.79166 343.29703 366.79166Q343.98453 366.79166 344.50015 367.0729Q345.0314 367.35416 345.37515 367.8854Q345.7189 368.40103 345.9064 369.15103Q346.0939 369.90103 346.0939 371.18228Q346.0939 372.6979 345.7814 373.61978Q345.48453 374.54166 344.85953 375.05728Q344.25015 375.55728 343.29703 375.55728Q342.06265 375.55728 341.3439 374.66666Q340.50015 373.60416 340.50015 371.18228ZM341.57828 371.18228Q341.57828 373.29166 342.07828 373.99478Q342.57828 374.6979 343.29703 374.6979Q344.0314 374.6979 344.51578 373.99478Q345.01578 373.29166 345.01578 371.18228Q345.01578 369.05728 344.51578 368.36978Q344.0314 367.66666 343.2814 367.66666Q342.56265 367.66666 342.12515 368.27603Q341.57828 369.05728 341.57828 371.18228ZM347.50015 371.18228Q347.50015 369.65103 347.81265 368.72916Q348.12515 367.79166 348.73453 367.29166Q349.35953 366.79166 350.29703 366.79166Q350.98453 366.79166 351.50015 367.0729Q352.0314 367.35416 352.37515 367.8854Q352.7189 368.40103 352.9064 369.15103Q353.0939 369.90103 353.0939 371.18228Q353.0939 372.6979 352.7814 373.61978Q352.48453 374.54166 351.85953 375.05728Q351.25015 375.55728 350.29703 375.55728Q349.06265 375.55728 348.3439 374.66666Q347.50015 373.60416 347.50015 371.18228ZM348.57828 371.18228Q348.57828 373.29166 349.07828 373.99478Q349.57828 374.6979 350.29703 374.6979Q351.0314 374.6979 351.51578 373.99478Q352.01578 373.29166 352.01578 371.18228Q352.01578 369.05728 351.51578 368.36978Q351.0314 367.66666 350.2814 367.66666Q349.56265 367.66666 349.12515 368.27603Q348.57828 369.05728 348.57828 371.18228ZM354.79703 375.41666L354.79703 369.1979L355.73453 369.1979L355.73453 370.0729Q356.0314 369.60416 356.51578 369.33853Q357.00015 369.05728 357.62515 369.05728Q358.31265 369.05728 358.75015 369.33853Q359.20328 369.61978 359.37515 370.1354Q360.12515 369.05728 361.29703 369.05728Q362.23453 369.05728 362.7189 369.5729Q363.2189 370.0729 363.2189 371.15103L363.2189 375.41666L362.17203 375.41666L362.17203 371.49478Q362.17203 370.86978 362.06265 370.58853Q361.9689 370.30728 361.70328 370.1354Q361.43765 369.96353 361.06265 369.96353Q360.4064 369.96353 359.9689 370.40103Q359.54703 370.83853 359.54703 371.80728L359.54703 375.41666L358.48453 375.41666L358.48453 371.36978Q358.48453 370.66666 358.2189 370.3229Q357.9689 369.96353 357.39078 369.96353Q356.93765 369.96353 356.56265 370.1979Q356.18765 370.43228 356.01578 370.8854Q355.8439 371.33853 355.8439 372.18228L355.8439 375.41666L354.79703 375.41666ZM364.37515 373.55728L365.4064 373.40103Q365.50015 374.02603 365.89078 374.35416Q366.29703 374.68228 367.0314 374.68228Q367.75015 374.68228 368.0939 374.40103Q368.45328 374.10416 368.45328 373.6979Q368.45328 373.33853 368.14078 373.1354Q367.92203 372.99478 367.06265 372.77603Q365.9064 372.47916 365.45328 372.27603Q365.01578 372.05728 364.7814 371.68228Q364.54703 371.30728 364.54703 370.83853Q364.54703 370.43228 364.73453 370.0729Q364.92203 369.71353 365.25015 369.47916Q365.50015 369.30728 365.92203 369.18228Q366.3439 369.05728 366.8439 369.05728Q367.56265 369.05728 368.10953 369.27603Q368.67203 369.47916 368.93765 369.83853Q369.20328 370.1979 369.29703 370.79166L368.26578 370.93228Q368.20328 370.46353 367.85953 370.1979Q367.5314 369.91666 366.9064 369.91666Q366.18765 369.91666 365.87515 370.16666Q365.56265 370.40103 365.56265 370.72916Q365.56265 370.93228 365.68765 371.08853Q365.82828 371.2604 366.0939 371.36978Q366.25015 371.43228 367.0314 371.6354Q368.1564 371.9479 368.5939 372.1354Q369.0314 372.3229 369.2814 372.68228Q369.5314 373.04166 369.5314 373.58853Q369.5314 374.11978 369.2189 374.58853Q368.92203 375.04166 368.3439 375.30728Q367.76578 375.55728 367.0314 375.55728Q365.81265 375.55728 365.17203 375.05728Q364.54703 374.54166 364.37515 373.55728Z" fill-rule="nonzero"/><path fill="#b7b7b7" d="M468.7185 375.41666L467.67163 375.41666L467.67163 368.6979Q467.281 369.05728 466.656 369.43228Q466.04663 369.79166 465.56226 369.96353L465.56226 368.9479Q466.43726 368.52603 467.0935 367.9479Q467.76538 367.35416 468.04663 366.79166L468.7185 366.79166L468.7185 375.41666ZM477.29663 374.40103L477.29663 375.41666L471.60913 375.41666Q471.60913 375.04166 471.73413 374.68228Q471.95288 374.10416 472.42163 373.54166Q472.906 372.97916 473.81226 372.24478Q475.2185 371.08853 475.70288 370.41666Q476.20288 369.74478 476.20288 369.15103Q476.20288 368.52603 475.74976 368.10416Q475.29663 367.66666 474.57788 367.66666Q473.81226 367.66666 473.35913 368.11978Q472.906 368.5729 472.89038 369.3854L471.81226 369.27603Q471.92163 368.05728 472.64038 367.43228Q473.37476 366.79166 474.60913 366.79166Q475.8435 366.79166 476.56226 367.47916Q477.281 368.16666 477.281 369.18228Q477.281 369.6979 477.06226 370.1979Q476.85913 370.68228 476.35913 371.24478Q475.87476 371.79166 474.74976 372.74478Q473.79663 373.54166 473.51538 373.83853Q473.24976 374.11978 473.07788 374.40103L477.29663 374.40103ZM478.74976 373.16666L479.85913 373.0729Q479.98413 373.8854 480.42163 374.29166Q480.87476 374.6979 481.51538 374.6979Q482.26538 374.6979 482.79663 374.11978Q483.32788 373.54166 483.32788 372.60416Q483.32788 371.6979 482.81226 371.18228Q482.31226 370.65103 481.48413 370.65103Q480.98413 370.65103 480.56226 370.8854Q480.156 371.11978 479.92163 371.47916L478.93726 371.35416L479.76538 366.9479L484.04663 366.9479L484.04663 367.9479L480.60913 367.9479L480.156 370.2604Q480.92163 369.71353 481.76538 369.71353Q482.89038 369.71353 483.656 370.49478Q484.43726 371.27603 484.43726 372.5104Q484.43726 373.66666 483.76538 374.52603Q482.93726 375.55728 481.51538 375.55728Q480.3435 375.55728 479.5935 374.90103Q478.85913 374.24478 478.74976 373.16666ZM486.04663 375.41666L486.04663 369.1979L486.98413 369.1979L486.98413 370.0729Q487.281 369.60416 487.76538 369.33853Q488.24976 369.05728 488.87476 369.05728Q489.56226 369.05728 489.99976 369.33853Q490.45288 369.61978 490.62476 370.1354Q491.37476 369.05728 492.54663 369.05728Q493.48413 369.05728 493.9685 369.5729Q494.4685 370.0729 494.4685 371.15103L494.4685 375.41666L493.42163 375.41666L493.42163 371.49478Q493.42163 370.86978 493.31226 370.58853Q493.2185 370.30728 492.95288 370.1354Q492.68726 369.96353 492.31226 369.96353Q491.656 369.96353 491.2185 370.40103Q490.79663 370.83853 490.79663 371.80728L490.79663 375.41666L489.73413 375.41666L489.73413 371.36978Q489.73413 370.66666 489.4685 370.3229Q489.2185 369.96353 488.64038 369.96353Q488.18726 369.96353 487.81226 370.1979Q487.43726 370.43228 487.26538 370.8854Q487.0935 371.33853 487.0935 372.18228L487.0935 375.41666L486.04663 375.41666ZM495.62476 373.55728L496.656 373.40103Q496.74976 374.02603 497.14038 374.35416Q497.54663 374.68228 498.281 374.68228Q498.99976 374.68228 499.3435 374.40103Q499.70288 374.10416 499.70288 373.6979Q499.70288 373.33853 499.39038 373.1354Q499.17163 372.99478 498.31226 372.77603Q497.156 372.47916 496.70288 372.27603Q496.26538 372.05728 496.031 371.68228Q495.79663 371.30728 495.79663 370.83853Q495.79663 370.43228 495.98413 370.0729Q496.17163 369.71353 496.49976 369.47916Q496.74976 369.30728 497.17163 369.18228Q497.5935 369.05728 498.0935 369.05728Q498.81226 369.05728 499.35913 369.27603Q499.92163 369.47916 500.18726 369.83853Q500.45288 370.1979 500.54663 370.79166L499.51538 370.93228Q499.45288 370.46353 499.10913 370.1979Q498.781 369.91666 498.156 369.91666Q497.43726 369.91666 497.12476 370.16666Q496.81226 370.40103 496.81226 370.72916Q496.81226 370.93228 496.93726 371.08853Q497.07788 371.2604 497.3435 371.36978Q497.49976 371.43228 498.281 371.6354Q499.406 371.9479 499.8435 372.1354Q500.281 372.3229 500.531 372.68228Q500.781 373.04166 500.781 373.58853Q500.781 374.11978 500.4685 374.58853Q500.17163 375.04166 499.5935 375.30728Q499.01538 375.55728 498.281 375.55728Q497.06226 375.55728 496.42163 375.05728Q495.79663 374.54166 495.62476 373.55728Z" fill-rule="nonzero"/><path fill="#b7b7b7" d="M599.9681 375.41666L598.9212 375.41666L598.9212 368.6979Q598.5306 369.05728 597.9056 369.43228Q597.2962 369.79166 596.8118 369.96353L596.8118 368.9479Q597.6868 368.52603 598.3431 367.9479Q599.01495 367.35416 599.2962 366.79166L599.9681 366.79166L599.9681 375.41666ZM602.9993 373.16666L604.1087 373.0729Q604.2337 373.8854 604.6712 374.29166Q605.1243 374.6979 605.76495 374.6979Q606.51495 374.6979 607.0462 374.11978Q607.57745 373.54166 607.57745 372.60416Q607.57745 371.6979 607.0618 371.18228Q606.5618 370.65103 605.7337 370.65103Q605.2337 370.65103 604.8118 370.8854Q604.4056 371.11978 604.1712 371.47916L603.1868 371.35416L604.01495 366.9479L608.2962 366.9479L608.2962 367.9479L604.8587 367.9479L604.4056 370.2604Q605.1712 369.71353 606.01495 369.71353Q607.13995 369.71353 607.9056 370.49478Q608.6868 371.27603 608.6868 372.5104Q608.6868 373.66666 608.01495 374.52603Q607.1868 375.55728 605.76495 375.55728Q604.5931 375.55728 603.8431 374.90103Q603.1087 374.24478 602.9993 373.16666ZM609.9993 371.18228Q609.9993 369.65103 610.3118 368.72916Q610.6243 367.79166 611.2337 367.29166Q611.8587 366.79166 612.7962 366.79166Q613.4837 366.79166 613.9993 367.0729Q614.5306 367.35416 614.8743 367.8854Q615.2181 368.40103 615.4056 369.15103Q615.5931 369.90103 615.5931 371.18228Q615.5931 372.6979 615.2806 373.61978Q614.9837 374.54166 614.3587 375.05728Q613.7493 375.55728 612.7962 375.55728Q611.5618 375.55728 610.8431 374.66666Q609.9993 373.60416 609.9993 371.18228ZM611.07745 371.18228Q611.07745 373.29166 611.57745 373.99478Q612.07745 374.6979 612.7962 374.6979Q613.5306 374.6979 614.01495 373.99478Q614.51495 373.29166 614.51495 371.18228Q614.51495 369.05728 614.01495 368.36978Q613.5306 367.66666 612.7806 367.66666Q612.0618 367.66666 611.6243 368.27603Q611.07745 369.05728 611.07745 371.18228ZM617.2962 375.41666L617.2962 369.1979L618.2337 369.1979L618.2337 370.0729Q618.5306 369.60416 619.01495 369.33853Q619.4993 369.05728 620.1243 369.05728Q620.8118 369.05728 621.2493 369.33853Q621.70245 369.61978 621.8743 370.1354Q622.6243 369.05728 623.7962 369.05728Q624.7337 369.05728 625.2181 369.5729Q625.7181 370.0729 625.7181 371.15103L625.7181 375.41666L624.6712 375.41666L624.6712 371.49478Q624.6712 370.86978 624.5618 370.58853Q624.4681 370.30728 624.20245 370.1354Q623.9368 369.96353 623.5618 369.96353Q622.9056 369.96353 622.4681 370.40103Q622.0462 370.83853 622.0462 371.80728L622.0462 375.41666L620.9837 375.41666L620.9837 371.36978Q620.9837 370.66666 620.7181 370.3229Q620.4681 369.96353 619.88995 369.96353Q619.4368 369.96353 619.0618 370.1979Q618.6868 370.43228 618.51495 370.8854Q618.3431 371.33853 618.3431 372.18228L618.3431 375.41666L617.2962 375.41666ZM626.8743 373.55728L627.9056 373.40103Q627.9993 374.02603 628.38995 374.35416Q628.7962 374.68228 629.5306 374.68228Q630.2493 374.68228 630.5931 374.40103Q630.95245 374.10416 630.95245 373.6979Q630.95245 373.33853 630.63995 373.1354Q630.4212 372.99478 629.5618 372.77603Q628.4056 372.47916 627.95245 372.27603Q627.51495 372.05728 627.2806 371.68228Q627.0462 371.30728 627.0462 370.83853Q627.0462 370.43228 627.2337 370.0729Q627.4212 369.71353 627.7493 369.47916Q627.9993 369.30728 628.4212 369.18228Q628.8431 369.05728 629.3431 369.05728Q630.0618 369.05728 630.6087 369.27603Q631.1712 369.47916 631.4368 369.83853Q631.70245 370.1979 631.7962 370.79166L630.76495 370.93228Q630.70245 370.46353 630.3587 370.1979Q630.0306 369.91666 629.4056 369.91666Q628.6868 369.91666 628.3743 370.16666Q628.0618 370.40103 628.0618 370.72916Q628.0618 370.93228 628.1868 371.08853Q628.32745 371.2604 628.5931 371.36978Q628.7493 371.43228 629.5306 371.6354Q630.6556 371.9479 631.0931 372.1354Q631.5306 372.3229 631.7806 372.68228Q632.0306 373.04166 632.0306 373.58853Q632.0306 374.11978 631.7181 374.58853Q631.4212 375.04166 630.8431 375.30728Q630.26495 375.55728 629.5306 375.55728Q628.3118 375.55728 627.6712 375.05728Q627.0462 374.54166 626.8743 373.55728Z" fill-rule="nonzero"/><path fill="#ff6d01" d="M257.0 432.85C257.0 436.1637 254.3137 438.85 251.0 438.85C247.6863 438.85 245.0 436.1637 245.0 432.85C245.0 429.5363 247.6863 426.85 251.0 426.85C254.3137 426.85 257.0 429.5363 257.0 432.85Z" fill-rule="nonzero"/><path fill="#f3f3f3" d="M265.79688 436.85L265.79688 428.25626L266.84375 428.25626L266.84375 431.33438Q267.57812 430.49063 268.70312 430.49063Q269.40625 430.49063 269.90625 430.77188Q270.42188 431.0375 270.64062 431.52188Q270.85938 431.99063 270.85938 432.9125L270.85938 436.85L269.8125 436.85L269.8125 432.9125Q269.8125 432.11563 269.46875 431.75626Q269.125 431.39688 268.5 431.39688Q268.03125 431.39688 267.60938 431.64688Q267.20312 431.88126 267.01562 432.30313Q266.84375 432.70938 266.84375 433.44376L266.84375 436.85L265.79688 436.85ZM275.09375 435.9125L275.25 436.83438Q274.79688 436.92813 274.45312 436.92813Q273.875 436.92813 273.5625 436.75626Q273.25 436.56876 273.10938 436.27188Q272.98438 435.975 272.98438 435.02188L272.98438 431.44376L272.21875 431.44376L272.21875 430.63126L272.98438 430.63126L272.98438 429.08438L274.03125 428.45938L274.03125 430.63126L275.09375 430.63126L275.09375 431.44376L274.03125 431.44376L274.03125 435.08438Q274.03125 435.5375 274.07812 435.6625Q274.14062 435.7875 274.26562 435.86563Q274.39062 435.94376 274.625 435.94376Q274.8125 435.94376 275.09375 435.9125ZM278.09375 435.9125L278.25 436.83438Q277.79688 436.92813 277.45312 436.92813Q276.875 436.92813 276.5625 436.75626Q276.25 436.56876 276.10938 436.27188Q275.98438 435.975 275.98438 435.02188L275.98438 431.44376L275.21875 431.44376L275.21875 430.63126L275.98438 430.63126L275.98438 429.08438L277.03125 428.45938L277.03125 430.63126L278.09375 430.63126L278.09375 431.44376L277.03125 431.44376L277.03125 435.08438Q277.03125 435.5375 277.07812 435.6625Q277.14062 435.7875 277.26562 435.86563Q277.39062 435.94376 277.625 435.94376Q277.8125 435.94376 278.09375 435.9125ZM278.79688 439.24063L278.79688 430.63126L279.75 430.63126L279.75 431.42813Q280.09375 430.95938 280.51562 430.725Q280.95312 430.49063 281.5625 430.49063Q282.35938 430.49063 282.96875 430.89688Q283.57812 431.30313 283.875 432.05313Q284.1875 432.80313 284.1875 433.69376Q284.1875 434.64688 283.84375 435.4125Q283.51562 436.17813 282.85938 436.58438Q282.20312 436.99063 281.48438 436.99063Q280.95312 436.99063 280.53125 436.77188Q280.10938 436.5375 279.84375 436.20938L279.84375 439.24063L278.79688 439.24063ZM279.75 433.77188Q279.75 434.975 280.23438 435.55313Q280.71875 436.11563 281.40625 436.11563Q282.10938 436.11563 282.60938 435.52188Q283.10938 434.92813 283.10938 433.67813Q283.10938 432.49063 282.625 431.9125Q282.14062 431.31876 281.45312 431.31876Q280.78125 431.31876 280.26562 431.94376Q279.75 432.56876 279.75 433.77188ZM285.375 434.99063L286.40625 434.83438Q286.5 435.45938 286.89062 435.7875Q287.29688 436.11563 288.03125 436.11563Q288.75 436.11563 289.09375 435.83438Q289.45312 435.5375 289.45312 435.13126Q289.45312 434.77188 289.14062 434.56876Q288.92188 434.42813 288.0625 434.20938Q286.90625 433.9125 286.45312 433.70938Q286.01562 433.49063 285.78125 433.11563Q285.54688 432.74063 285.54688 432.27188Q285.54688 431.86563 285.73438 431.50626Q285.92188 431.14688 286.25 430.9125Q286.5 430.74063 286.92188 430.61563Q287.34375 430.49063 287.84375 430.49063Q288.5625 430.49063 289.10938 430.70938Q289.67188 430.9125 289.9375 431.27188Q290.20312 431.63126 290.29688 432.225L289.26562 432.36563Q289.20312 431.89688 288.85938 431.63126Q288.53125 431.35 287.90625 431.35Q287.1875 431.35 286.875 431.6Q286.5625 431.83438 286.5625 432.1625Q286.5625 432.36563 286.6875 432.52188Q286.82812 432.69376 287.09375 432.80313Q287.25 432.86563 288.03125 433.06876Q289.15625 433.38126 289.59375 433.56876Q290.03125 433.75626 290.28125 434.11563Q290.53125 434.475 290.53125 435.02188Q290.53125 435.55313 290.21875 436.02188Q289.92188 436.475 289.34375 436.74063Q288.76562 436.99063 288.03125 436.99063Q286.8125 436.99063 286.17188 436.49063Q285.54688 435.975 285.375 434.99063ZM297.34375 431.80313L291.67188 431.80313L291.67188 430.81876L297.34375 430.81876L297.34375 431.80313ZM297.34375 434.4125L291.67188 434.4125L291.67188 433.42813L297.34375 433.42813L297.34375 434.4125ZM298.40625 433.74063Q298.40625 432.00626 299.35938 431.17813Q300.15625 430.49063 301.3125 430.49063Q302.59375 430.49063 303.40625 431.33438Q304.23438 432.1625 304.23438 433.64688Q304.23438 434.85 303.875 435.5375Q303.51562 436.225 302.8125 436.61563Q302.125 436.99063 301.3125 436.99063Q300.01562 436.99063 299.20312 436.1625Q298.40625 435.31876 298.40625 433.74063ZM299.48438 433.74063Q299.48438 434.92813 300.0 435.52188Q300.53125 436.11563 301.3125 436.11563Q302.10938 436.11563 302.625 435.52188Q303.14062 434.92813 303.14062 433.70938Q303.14062 432.55313 302.60938 431.95938Q302.09375 431.36563 301.3125 431.36563Q300.53125 431.36563 300.0 431.95938Q299.48438 432.5375 299.48438 433.74063ZM305.79688 436.85L305.79688 430.63126L306.73438 430.63126L306.73438 431.50626Q307.42188 430.49063 308.71875 430.49063Q309.28125 430.49063 309.75 430.69376Q310.23438 430.89688 310.46875 431.225Q310.70312 431.55313 310.79688 431.99063Q310.84375 432.2875 310.84375 433.02188L310.84375 436.85L309.79688 436.85L309.79688 433.06876Q309.79688 432.4125 309.67188 432.1Q309.54688 431.7875 309.23438 431.6Q308.92188 431.39688 308.5 431.39688Q307.82812 431.39688 307.32812 431.83438Q306.84375 432.25626 306.84375 433.44376L306.84375 436.85L305.79688 436.85Z" fill-rule="nonzero"/><path fill="#34a853" d="M340.0 432.85C340.0 436.1637 337.31372 438.85 334.0 438.85C330.68628 438.85 328.0 436.1637 328.0 432.85C328.0 429.5363 330.68628 426.85 334.0 426.85C337.31372 426.85 340.0 429.5363 340.0 432.85Z" fill-rule="nonzero"/><path fill="#f3f3f3" d="M348.79688 436.85L348.79688 428.25626L349.84375 428.25626L349.84375 431.33438Q350.57812 430.49063 351.70312 430.49063Q352.40625 430.49063 352.90625 430.77188Q353.42188 431.0375 353.64062 431.52188Q353.85938 431.99063 353.85938 432.9125L353.85938 436.85L352.8125 436.85L352.8125 432.9125Q352.8125 432.11563 352.46875 431.75626Q352.125 431.39688 351.5 431.39688Q351.03125 431.39688 350.60938 431.64688Q350.20312 431.88126 350.01562 432.30313Q349.84375 432.70938 349.84375 433.44376L349.84375 436.85L348.79688 436.85ZM358.09375 435.9125L358.25 436.83438Q357.79688 436.92813 357.45312 436.92813Q356.875 436.92813 356.5625 436.75626Q356.25 436.56876 356.10938 436.27188Q355.98438 435.975 355.98438 435.02188L355.98438 431.44376L355.21875 431.44376L355.21875 430.63126L355.98438 430.63126L355.98438 429.08438L357.03125 428.45938L357.03125 430.63126L358.09375 430.63126L358.09375 431.44376L357.03125 431.44376L357.03125 435.08438Q357.03125 435.5375 357.07812 435.6625Q357.14062 435.7875 357.26562 435.86563Q357.39062 435.94376 357.625 435.94376Q357.8125 435.94376 358.09375 435.9125ZM361.09375 435.9125L361.25 436.83438Q360.79688 436.92813 360.45312 436.92813Q359.875 436.92813 359.5625 436.75626Q359.25 436.56876 359.10938 436.27188Q358.98438 435.975 358.98438 435.02188L358.98438 431.44376L358.21875 431.44376L358.21875 430.63126L358.98438 430.63126L358.98438 429.08438L360.03125 428.45938L360.03125 430.63126L361.09375 430.63126L361.09375 431.44376L360.03125 431.44376L360.03125 435.08438Q360.03125 435.5375 360.07812 435.6625Q360.14062 435.7875 360.26562 435.86563Q360.39062 435.94376 360.625 435.94376Q360.8125 435.94376 361.09375 435.9125ZM361.79688 439.24063L361.79688 430.63126L362.75 430.63126L362.75 431.42813Q363.09375 430.95938 363.51562 430.725Q363.95312 430.49063 364.5625 430.49063Q365.35938 430.49063 365.96875 430.89688Q366.57812 431.30313 366.875 432.05313Q367.1875 432.80313 367.1875 433.69376Q367.1875 434.64688 366.84375 435.4125Q366.51562 436.17813 365.85938 436.58438Q365.20312 436.99063 364.48438 436.99063Q363.95312 436.99063 363.53125 436.77188Q363.10938 436.5375 362.84375 436.20938L362.84375 439.24063L361.79688 439.24063ZM362.75 433.77188Q362.75 434.975 363.23438 435.55313Q363.71875 436.11563 364.40625 436.11563Q365.10938 436.11563 365.60938 435.52188Q366.10938 434.92813 366.10938 433.67813Q366.10938 432.49063 365.625 431.9125Q365.14062 431.31876 364.45312 431.31876Q363.78125 431.31876 363.26562 431.94376Q362.75 432.56876 362.75 433.77188ZM368.375 434.99063L369.40625 434.83438Q369.5 435.45938 369.89062 435.7875Q370.29688 436.11563 371.03125 436.11563Q371.75 436.11563 372.09375 435.83438Q372.45312 435.5375 372.45312 435.13126Q372.45312 434.77188 372.14062 434.56876Q371.92188 434.42813 371.0625 434.20938Q369.90625 433.9125 369.45312 433.70938Q369.01562 433.49063 368.78125 433.11563Q368.54688 432.74063 368.54688 432.27188Q368.54688 431.86563 368.73438 431.50626Q368.92188 431.14688 369.25 430.9125Q369.5 430.74063 369.92188 430.61563Q370.34375 430.49063 370.84375 430.49063Q371.5625 430.49063 372.10938 430.70938Q372.67188 430.9125 372.9375 431.27188Q373.20312 431.63126 373.29688 432.225L372.26562 432.36563Q372.20312 431.89688 371.85938 431.63126Q371.53125 431.35 370.90625 431.35Q370.1875 431.35 369.875 431.6Q369.5625 431.83438 369.5625 432.1625Q369.5625 432.36563 369.6875 432.52188Q369.82812 432.69376 370.09375 432.80313Q370.25 432.86563 371.03125 433.06876Q372.15625 433.38126 372.59375 433.56876Q373.03125 433.75626 373.28125 434.11563Q373.53125 434.475 373.53125 435.02188Q373.53125 435.55313 373.21875 436.02188Q372.92188 436.475 372.34375 436.74063Q371.76562 436.99063 371.03125 436.99063Q369.8125 436.99063 369.17188 436.49063Q368.54688 435.975 368.375 434.99063ZM380.34375 431.80313L374.67188 431.80313L374.67188 430.81876L380.34375 430.81876L380.34375 431.80313ZM380.34375 434.4125L374.67188 434.4125L374.67188 433.42813L380.34375 433.42813L380.34375 434.4125ZM381.40625 433.74063Q381.40625 432.00626 382.35938 431.17813Q383.15625 430.49063 384.3125 430.49063Q385.59375 430.49063 386.40625 431.33438Q387.23438 432.1625 387.23438 433.64688Q387.23438 434.85 386.875 435.5375Q386.51562 436.225 385.8125 436.61563Q385.125 436.99063 384.3125 436.99063Q383.01562 436.99063 382.20312 436.1625Q381.40625 435.31876 381.40625 433.74063ZM382.48438 433.74063Q382.48438 434.92813 383.0 435.52188Q383.53125 436.11563 384.3125 436.11563Q385.10938 436.11563 385.625 435.52188Q386.14062 434.92813 386.14062 433.70938Q386.14062 432.55313 385.60938 431.95938Q385.09375 431.36563 384.3125 431.36563Q383.53125 431.36563 383.0 431.95938Q382.48438 432.5375 382.48438 433.74063ZM389.04688 436.85L389.04688 431.44376L388.10938 431.44376L388.10938 430.63126L389.04688 430.63126L389.04688 429.95938Q389.04688 429.33438 389.15625 429.0375Q389.3125 428.61563 389.6875 428.36563Q390.07812 428.11563 390.76562 428.11563Q391.21875 428.11563 391.75 428.225L391.59375 429.13126Q391.26562 429.08438 390.96875 429.08438Q390.48438 429.08438 390.28125 429.2875Q390.09375 429.49063 390.09375 430.05313L390.09375 430.63126L391.3125 430.63126L391.3125 431.44376L390.09375 431.44376L390.09375 436.85L389.04688 436.85ZM392.04688 436.85L392.04688 431.44376L391.10938 431.44376L391.10938 430.63126L392.04688 430.63126L392.04688 429.95938Q392.04688 429.33438 392.15625 429.0375Q392.3125 428.61563 392.6875 428.36563Q393.07812 428.11563 393.76562 428.11563Q394.21875 428.11563 394.75 428.225L394.59375 429.13126Q394.26562 429.08438 393.96875 429.08438Q393.48438 429.08438 393.28125 429.2875Q393.09375 429.49063 393.09375 430.05313L393.09375 430.63126L394.3125 430.63126L394.3125 431.44376L393.09375 431.44376L393.09375 436.85L392.04688 436.85Z" fill-rule="nonzero"/><path fill="#4285f4" d="M422.0 432.85C422.0 436.1637 419.31372 438.85 416.0 438.85C412.68628 438.85 410.0 436.1637 410.0 432.85C410.0 429.5363 412.68628 426.85 416.0 426.85C419.31372 426.85 422.0 429.5363 422.0 432.85Z" fill-rule="nonzero"/><path fill="#f3f3f3" d="M430.79688 439.24063L430.79688 430.63126L431.75 430.63126L431.75 431.42813Q432.09375 430.95938 432.51562 430.725Q432.95312 430.49063 433.5625 430.49063Q434.35938 430.49063 434.96875 430.89688Q435.57812 431.30313 435.875 432.05313Q436.1875 432.80313 436.1875 433.69376Q436.1875 434.64688 435.84375 435.4125Q435.51562 436.17813 434.85938 436.58438Q434.20312 436.99063 433.48438 436.99063Q432.95312 436.99063 432.53125 436.77188Q432.10938 436.5375 431.84375 436.20938L431.84375 439.24063L430.79688 439.24063ZM431.75 433.77188Q431.75 434.975 432.23438 435.55313Q432.71875 436.11563 433.40625 436.11563Q434.10938 436.11563 434.60938 435.52188Q435.10938 434.92813 435.10938 433.67813Q435.10938 432.49063 434.625 431.9125Q434.14062 431.31876 433.45312 431.31876Q432.78125 431.31876 432.26562 431.94376Q431.75 432.56876 431.75 433.77188ZM437.78125 436.85L437.78125 430.63126L438.73438 430.63126L438.73438 431.56876Q439.09375 430.9125 439.39062 430.70938Q439.70312 430.49063 440.07812 430.49063Q440.60938 430.49063 441.15625 430.81876L440.79688 431.80313Q440.40625 431.56876 440.03125 431.56876Q439.67188 431.56876 439.39062 431.7875Q439.125 431.99063 439.01562 432.36563Q438.82812 432.92813 438.82812 433.58438L438.82812 436.85L437.78125 436.85ZM441.40625 433.74063Q441.40625 432.00626 442.35938 431.17813Q443.15625 430.49063 444.3125 430.49063Q445.59375 430.49063 446.40625 431.33438Q447.23438 432.1625 447.23438 433.64688Q447.23438 434.85 446.875 435.5375Q446.51562 436.225 445.8125 436.61563Q445.125 436.99063 444.3125 436.99063Q443.01562 436.99063 442.20312 436.1625Q441.40625 435.31876 441.40625 433.74063ZM442.48438 433.74063Q442.48438 434.92813 443.0 435.52188Q443.53125 436.11563 444.3125 436.11563Q445.10938 436.11563 445.625 435.52188Q446.14062 434.92813 446.14062 433.70938Q446.14062 432.55313 445.60938 431.95938Q445.09375 431.36563 444.3125 431.36563Q443.53125 431.36563 443.0 431.95938Q442.48438 432.5375 442.48438 433.74063ZM451.09375 435.9125L451.25 436.83438Q450.79688 436.92813 450.45312 436.92813Q449.875 436.92813 449.5625 436.75626Q449.25 436.56876 449.10938 436.27188Q448.98438 435.975 448.98438 435.02188L448.98438 431.44376L448.21875 431.44376L448.21875 430.63126L448.98438 430.63126L448.98438 429.08438L450.03125 428.45938L450.03125 430.63126L451.09375 430.63126L451.09375 431.44376L450.03125 431.44376L450.03125 435.08438Q450.03125 435.5375 450.07812 435.6625Q450.14062 435.7875 450.26562 435.86563Q450.39062 435.94376 450.625 435.94376Q450.8125 435.94376 451.09375 435.9125ZM456.04688 434.85L457.14062 434.975Q456.89062 435.92813 456.1875 436.45938Q455.48438 436.99063 454.40625 436.99063Q453.04688 436.99063 452.23438 436.14688Q451.4375 435.30313 451.4375 433.7875Q451.4375 432.225 452.25 431.36563Q453.0625 430.49063 454.34375 430.49063Q455.59375 430.49063 456.375 431.33438Q457.17188 432.17813 457.17188 433.725Q457.17188 433.81876 457.17188 434.00626L452.53125 434.00626Q452.59375 435.0375 453.10938 435.58438Q453.625 436.11563 454.40625 436.11563Q454.98438 436.11563 455.39062 435.81876Q455.8125 435.50626 456.04688 434.85ZM452.59375 433.14688L456.0625 433.14688Q456.0 432.35 455.67188 431.95938Q455.15625 431.35 454.35938 431.35Q453.625 431.35 453.125 431.83438Q452.64062 432.31876 452.59375 433.14688ZM462.85938 434.56876L463.89062 434.70938Q463.71875 435.77188 463.01562 436.38126Q462.3125 436.99063 461.29688 436.99063Q460.01562 436.99063 459.23438 436.1625Q458.46875 435.31876 458.46875 433.75626Q458.46875 432.75626 458.79688 432.00626Q459.14062 431.24063 459.8125 430.86563Q460.5 430.49063 461.3125 430.49063Q462.3125 430.49063 462.95312 431.00626Q463.60938 431.50626 463.79688 432.45938L462.76562 432.61563Q462.625 431.99063 462.25 431.67813Q461.875 431.35 461.34375 431.35Q460.54688 431.35 460.04688 431.92813Q459.54688 432.49063 459.54688 433.725Q459.54688 434.99063 460.03125 435.55313Q460.51562 436.11563 461.28125 436.11563Q461.90625 436.11563 462.3125 435.74063Q462.73438 435.36563 462.85938 434.56876ZM467.09375 435.9125L467.25 436.83438Q466.79688 436.92813 466.45312 436.92813Q465.875 436.92813 465.5625 436.75626Q465.25 436.56876 465.10938 436.27188Q464.98438 435.975 464.98438 435.02188L464.98438 431.44376L464.21875 431.44376L464.21875 430.63126L464.98438 430.63126L464.98438 429.08438L466.03125 428.45938L466.03125 430.63126L467.09375 430.63126L467.09375 431.44376L466.03125 431.44376L466.03125 435.08438Q466.03125 435.5375 466.07812 435.6625Q466.14062 435.7875 466.26562 435.86563Q466.39062 435.94376 466.625 435.94376Q466.8125 435.94376 467.09375 435.9125ZM467.79688 429.475L467.79688 428.25626L468.85938 428.25626L468.85938 429.475L467.79688 429.475ZM467.79688 436.85L467.79688 430.63126L468.85938 430.63126L468.85938 436.85L467.79688 436.85ZM470.40625 433.74063Q470.40625 432.00626 471.35938 431.17813Q472.15625 430.49063 473.3125 430.49063Q474.59375 430.49063 475.40625 431.33438Q476.23438 432.1625 476.23438 433.64688Q476.23438 434.85 475.875 435.5375Q475.51562 436.225 474.8125 436.61563Q474.125 436.99063 473.3125 436.99063Q472.01562 436.99063 471.20312 436.1625Q470.40625 435.31876 470.40625 433.74063ZM471.48438 433.74063Q471.48438 434.92813 472.0 435.52188Q472.53125 436.11563 473.3125 436.11563Q474.10938 436.11563 474.625 435.52188Q475.14062 434.92813 475.14062 433.70938Q475.14062 432.55313 474.60938 431.95938Q474.09375 431.36563 473.3125 431.36563Q472.53125 431.36563 472.0 431.95938Q471.48438 432.5375 471.48438 433.74063ZM477.79688 436.85L477.79688 430.63126L478.73438 430.63126L478.73438 431.50626Q479.42188 430.49063 480.71875 430.49063Q481.28125 430.49063 481.75 430.69376Q482.23438 430.89688 482.46875 431.225Q482.70312 431.55313 482.79688 431.99063Q482.84375 432.2875 482.84375 433.02188L482.84375 436.85L481.79688 436.85L481.79688 433.06876Q481.79688 432.4125 481.67188 432.1Q481.54688 431.7875 481.23438 431.6Q480.92188 431.39688 480.5 431.39688Q479.82812 431.39688 479.32812 431.83438Q478.84375 432.25626 478.84375 433.44376L478.84375 436.85L477.79688 436.85ZM490.34375 431.80313L484.67188 431.80313L484.67188 430.81876L490.34375 430.81876L490.34375 431.80313ZM490.34375 434.4125L484.67188 434.4125L484.67188 433.42813L490.34375 433.42813L490.34375 434.4125ZM491.40625 433.74063Q491.40625 432.00626 492.35938 431.17813Q493.15625 430.49063 494.3125 430.49063Q495.59375 430.49063 496.40625 431.33438Q497.23438 432.1625 497.23438 433.64688Q497.23438 434.85 496.875 435.5375Q496.51562 436.225 495.8125 436.61563Q495.125 436.99063 494.3125 436.99063Q493.01562 436.99063 492.20312 436.1625Q491.40625 435.31876 491.40625 433.74063ZM492.48438 433.74063Q492.48438 434.92813 493.0 435.52188Q493.53125 436.11563 494.3125 436.11563Q495.10938 436.11563 495.625 435.52188Q496.14062 434.92813 496.14062 433.70938Q496.14062 432.55313 495.60938 431.95938Q495.09375 431.36563 494.3125 431.36563Q493.53125 431.36563 493.0 431.95938Q492.48438 432.5375 492.48438 433.74063ZM499.04688 436.85L499.04688 431.44376L498.10938 431.44376L498.10938 430.63126L499.04688 430.63126L499.04688 429.95938Q499.04688 429.33438 499.15625 429.0375Q499.3125 428.61563 499.6875 428.36563Q500.07812 428.11563 500.76562 428.11563Q501.21875 428.11563 501.75 428.225L501.59375 429.13126Q501.26562 429.08438 500.96875 429.08438Q500.48438 429.08438 500.28125 429.2875Q500.09375 429.49063 500.09375 430.05313L500.09375 430.63126L501.3125 430.63126L501.3125 431.44376L500.09375 431.44376L500.09375 436.85L499.04688 436.85ZM502.04688 436.85L502.04688 431.44376L501.10938 431.44376L501.10938 430.63126L502.04688 430.63126L502.04688 429.95938Q502.04688 429.33438 502.15625 429.0375Q502.3125 428.61563 502.6875 428.36563Q503.07812 428.11563 503.76562 428.11563Q504.21875 428.11563 504.75 428.225L504.59375 429.13126Q504.26562 429.08438 503.96875 429.08438Q503.48438 429.08438 503.28125 429.2875Q503.09375 429.49063 503.09375 430.05313L503.09375 430.63126L504.3125 430.63126L504.3125 431.44376L503.09375 431.44376L503.09375 436.85L502.04688 436.85Z" fill-rule="nonzero"/><path fill="#f3f3f3" d="M24.446875 42.15L24.446875 31.775002L26.025 31.775002L26.025 33.353127Q26.634375 32.24375 27.15 31.900002Q27.665625 31.540627 28.275 31.540627Q29.165625 31.540627 30.0875 32.103127L29.478125 33.74375Q28.8375 33.353127 28.196875 33.353127Q27.61875 33.353127 27.15 33.7125Q26.696875 34.05625 26.49375 34.665627Q26.2125 35.603127 26.2125 36.7125L26.2125 42.15L24.446875 42.15ZM30.821875 36.9625Q30.821875 34.0875 32.415627 32.696877Q33.759377 31.540627 35.68125 31.540627Q37.821877 31.540627 39.165627 32.946877Q40.525 34.353127 40.525 36.821877Q40.525 38.821877 39.93125 39.978127Q39.3375 41.11875 38.18125 41.759377Q37.040627 42.384377 35.68125 42.384377Q33.49375 42.384377 32.15 40.99375Q30.821875 39.5875 30.821875 36.9625ZM32.61875 36.9625Q32.61875 38.9625 33.478127 39.946877Q34.353127 40.93125 35.68125 40.93125Q36.99375 40.93125 37.853127 39.946877Q38.728127 38.946877 38.728127 36.9Q38.728127 34.978127 37.853127 33.99375Q36.978127 32.99375 35.68125 32.99375Q34.353127 32.99375 33.478127 33.99375Q32.61875 34.978127 32.61875 36.9625ZM49.259377 42.15L49.259377 40.61875Q48.05625 42.384377 45.978127 42.384377Q45.05625 42.384377 44.259377 42.040627Q43.4625 41.68125 43.071877 41.15Q42.696877 40.61875 42.540627 39.8375Q42.43125 39.321877 42.43125 38.196877L42.43125 31.775002L44.18125 31.775002L44.18125 37.525Q44.18125 38.9 44.290627 39.384377Q44.4625 40.071877 44.99375 40.478127Q45.540627 40.86875 46.321877 40.86875Q47.11875 40.86875 47.80625 40.4625Q48.509377 40.05625 48.790627 39.36875Q49.0875 38.665627 49.0875 37.3375L49.0875 31.775002L50.8375 31.775002L50.8375 42.15L49.259377 42.15ZM53.4625 42.15L53.4625 31.775002L55.05625 31.775002L55.05625 33.259377Q56.196877 31.540627 58.353127 31.540627Q59.290627 31.540627 60.071877 31.884377Q60.86875 32.2125 61.259377 32.759377Q61.65 33.30625 61.80625 34.05625Q61.9 34.55625 61.9 35.775L61.9 42.15L60.134377 42.15L60.134377 35.8375Q60.134377 34.759377 59.93125 34.228127Q59.728127 33.696877 59.196877 33.384377Q58.68125 33.071877 57.978127 33.071877Q56.853127 33.071877 56.040627 33.790627Q55.228127 34.49375 55.228127 36.478127L55.228127 42.15L53.4625 42.15ZM71.19688 42.15L71.19688 40.8375Q70.2125 42.384377 68.29063 42.384377Q67.05625 42.384377 66.00938 41.696877Q64.97813 41.009377 64.4 39.790627Q63.8375 38.571877 63.8375 36.978127Q63.8375 35.415627 64.35313 34.15Q64.86875 32.884377 65.9 32.2125Q66.94688 31.540627 68.2125 31.540627Q69.15 31.540627 69.88438 31.946877Q70.61875 32.3375 71.0875 32.9625L71.0875 27.837502L72.82188 27.837502L72.82188 42.15L71.19688 42.15ZM65.63438 36.978127Q65.63438 38.9625 66.47813 39.946877Q67.32188 40.93125 68.4625 40.93125Q69.61875 40.93125 70.41563 39.99375Q71.22813 39.05625 71.22813 37.11875Q71.22813 34.99375 70.4 33.99375Q69.5875 32.99375 68.38438 32.99375Q67.2125 32.99375 66.41563 33.9625Q65.63438 34.915627 65.63438 36.978127ZM74.79063 37.853127L74.79063 36.0875L80.18125 36.0875L80.18125 37.853127L74.79063 37.853127ZM86.30625 40.571877L86.55625 42.134377Q85.82188 42.290627 85.22813 42.290627Q84.275 42.290627 83.74375 41.99375Q83.22813 41.68125 83.00938 41.196877Q82.79063 40.696877 82.79063 39.11875L82.79063 33.15L81.50938 33.15L81.50938 31.775002L82.79063 31.775002L82.79063 29.212502L84.54063 28.150002L84.54063 31.775002L86.30625 31.775002L86.30625 33.15L84.54063 33.15L84.54063 39.2125Q84.54063 39.9625 84.63438 40.18125Q84.72813 40.384377 84.93125 40.525Q85.15 40.65 85.54063 40.65Q85.82188 40.65 86.30625 40.571877ZM88.44688 42.15L88.44688 31.775002L90.025 31.775002L90.025 33.353127Q90.63438 32.24375 91.15 31.900002Q91.66563 31.540627 92.275 31.540627Q93.16563 31.540627 94.0875 32.103127L93.47813 33.74375Q92.8375 33.353127 92.19688 33.353127Q91.61875 33.353127 91.15 33.7125Q90.69688 34.05625 90.49375 34.665627Q90.2125 35.603127 90.2125 36.7125L90.2125 42.15L88.44688 42.15ZM95.47813 29.853127L95.47813 27.837502L97.24375 27.837502L97.24375 29.853127L95.47813 29.853127ZM95.47813 42.15L95.47813 31.775002L97.24375 31.775002L97.24375 42.15L95.47813 42.15ZM99.4625 46.11875L99.4625 31.775002L101.07188 31.775002L101.07188 33.11875Q101.63438 32.3375 102.3375 31.946877Q103.05625 31.540627 104.07188 31.540627Q105.4 31.540627 106.41563 32.228127Q107.43125 32.915627 107.94688 34.165627Q108.47813 35.4 108.47813 36.884377Q108.47813 38.478127 107.9 39.759377Q107.3375 41.025 106.24375 41.7125Q105.15 42.384377 103.94688 42.384377Q103.07188 42.384377 102.36875 42.009377Q101.68125 41.634377 101.22813 41.071877L101.22813 46.11875L99.4625 46.11875ZM101.05625 37.025Q101.05625 39.025 101.86875 39.978127Q102.68125 40.93125 103.8375 40.93125Q105.00938 40.93125 105.8375 39.946877Q106.68125 38.9625 106.68125 36.86875Q106.68125 34.9 105.85313 33.915627Q105.04063 32.915627 103.91563 32.915627Q102.79063 32.915627 101.91563 33.978127Q101.05625 35.025 101.05625 37.025Z" fill-rule="nonzero"/></svg>